<svg width="122" height="32" viewBox="0 0 122 32" fill="none" xmlns="http://www.w3.org/2000/svg">
<path d="M115.156 6.12068L115.945 6.22276C116.045 6.23498 116.138 6.28086 116.208 6.35278C117.597 7.76481 118.667 9.45453 119.348 11.3095C119.374 11.3814 119.381 11.4588 119.369 11.5343C119.356 11.6098 119.324 11.6808 119.276 11.7405C119.228 11.8002 119.165 11.8467 119.094 11.8753C119.023 11.9039 118.945 11.9138 118.869 11.904L113.907 11.262C112.948 11.1384 111.973 11.2096 111.042 11.4715C110.111 11.7333 109.243 12.1803 108.491 12.7853L105.591 15.1079C104.84 15.7138 103.972 16.1614 103.042 16.4234C102.111 16.6853 101.136 16.7562 100.177 16.6316L92.5141 15.64C92.4042 15.6263 92.3033 15.5724 92.2311 15.4888C92.159 15.4052 92.1207 15.2979 92.1239 15.1878C92.2223 13.6652 92.5718 12.169 93.1584 10.7592C93.1971 10.6698 93.2642 10.5954 93.3494 10.5474C93.4347 10.4994 93.5334 10.4805 93.6304 10.4935L101.424 11.5021C102.384 11.6264 103.359 11.5555 104.29 11.2936C105.221 11.0317 106.089 10.5844 106.84 9.97876L109.738 7.6558C110.489 7.0479 111.356 6.59831 112.288 6.33439C113.219 6.07048 114.195 5.99776 115.156 6.12068ZM106.707 17.0899L103.804 19.4272C103.052 20.0318 102.184 20.4783 101.253 20.7397C100.322 21.001 99.3476 21.0717 98.3883 20.9476L93.4269 20.3055C93.3502 20.2954 93.2722 20.3052 93.2004 20.334C93.1286 20.3627 93.0656 20.4094 93.0173 20.4696C92.9691 20.5297 92.9373 20.6012 92.9251 20.6772C92.9129 20.7531 92.9207 20.8309 92.9477 20.903C93.6284 22.758 94.6986 24.4477 96.0872 25.8598C96.1576 25.9317 96.2505 25.9776 96.3507 25.9898L97.1395 26.0919C98.0987 26.2164 99.0734 26.1456 100.004 25.8836C100.935 25.6216 101.802 25.1741 102.553 24.5682L105.453 22.2456C106.205 21.6399 107.073 21.1926 108.004 20.9307C108.935 20.6689 109.91 20.5979 110.87 20.7222L118.663 21.7308C118.76 21.7441 118.858 21.7253 118.943 21.6771C119.028 21.629 119.095 21.5543 119.132 21.4647C119.724 20.0502 120.075 18.5479 120.172 17.0189C120.178 16.907 120.142 16.797 120.07 16.7109C119.997 16.6248 119.895 16.5691 119.783 16.5549L112.12 15.5632C111.161 15.4396 110.186 15.5111 109.256 15.7736C108.325 16.036 107.458 16.4839 106.707 17.0899ZM103.212 7.19496C104.17 7.319 105.145 7.24816 106.075 6.98675C107.006 6.72534 107.873 6.2788 108.625 5.6742L111.051 3.72494C111.112 3.67494 111.159 3.60975 111.186 3.53599C111.214 3.46223 111.221 3.38253 111.208 3.30498C111.194 3.22743 111.161 3.1548 111.11 3.09445C111.059 3.0341 110.993 2.98819 110.919 2.96139C108.547 2.11148 105.988 1.91137 103.512 2.38203C101.036 2.85268 98.7328 3.97679 96.8441 5.63652C96.7805 5.69332 96.7348 5.76709 96.7123 5.84903C96.6897 5.93097 96.6914 6.01762 96.717 6.09866C96.7427 6.1797 96.7912 6.25171 96.8569 6.3061C96.9225 6.36049 97.0025 6.39497 97.0873 6.40543L103.212 7.19496ZM109.084 25.0176C108.125 24.8932 107.15 24.9639 106.22 25.2253C105.289 25.4867 104.422 25.9334 103.671 26.5383L101.244 28.4876C101.183 28.5374 101.136 28.6024 101.109 28.6759C101.081 28.7495 101.073 28.829 101.086 28.9064C101.1 28.9839 101.133 29.0565 101.183 29.117C101.234 29.1774 101.3 29.2236 101.374 29.2508C103.746 30.0994 106.305 30.2989 108.781 29.8283C111.257 29.3578 113.561 28.2345 115.451 26.576C115.515 26.5192 115.56 26.4455 115.583 26.3635C115.605 26.2816 115.604 26.1949 115.578 26.1139C115.553 26.0328 115.504 25.9608 115.438 25.9064C115.373 25.8521 115.293 25.8176 115.208 25.8071L109.084 25.0176Z" fill="url(#paint0_linear_2627_68)"/>
<path d="M21.8001 29.8375C22.6886 29.8375 23.5029 29.3447 23.9113 28.5597L33.5423 10.0502C31.3821 10.0502 29.5427 10.0502 27.4955 10.0502C26.6796 10.0502 25.9422 10.5343 25.6215 11.2806L20.9402 22.1766L19.9861 12.4894C19.8498 11.1054 18.68 10.0502 17.2821 10.0502H16.5263C15.0332 10.0502 13.6597 10.8624 12.9462 12.1672L7.47326 22.1766L7.63736 11.4221C7.64887 10.6678 7.03738 10.0502 6.27905 10.0502H0.636841L2.11944 29.8375H7.51477C8.40048 29.8375 9.21276 29.3477 9.62246 28.5666L15.3804 17.5883L16.41 29.8375H21.8001Z" fill="black"/>
<path d="M35.7595 29.8375C36.5558 29.8375 37.2451 29.2871 37.4174 28.5137L41.5292 10.0502H36.55C35.7537 10.0502 35.0644 10.6007 34.8921 11.3741L30.7803 29.8375H35.7595Z" fill="black"/>
<path d="M58.0482 29.8375C58.8447 29.8375 59.5342 29.2868 59.7062 28.5132L62.4181 16.3183C62.5005 15.9086 62.624 15.0073 62.624 14.6796C62.624 11.6889 60.2354 9.55862 56.2406 9.55862C53.7883 9.55862 52.0121 10.5954 50.6091 11.7419C50.3503 11.9533 49.9534 11.7186 50.0307 11.3945L50.2522 10.4661C50.3028 10.2538 50.141 10.0502 49.9218 10.0502H45.3723C44.5759 10.0502 43.8866 10.6007 43.7144 11.3741L39.6026 29.8375H44.5812C45.3778 29.8375 46.0672 29.2868 46.2392 28.5131L48.7864 17.0557C49.7748 16.1134 51.1751 15.1302 52.74 15.1302C54.4285 15.1302 55.7464 15.7447 55.7464 17.3015C55.7464 17.6292 55.7052 17.9979 55.6229 18.3666L53.0695 29.8375H58.0482Z" fill="black"/>
<path d="M73.7789 9.55862C66.8601 9.55862 63.3184 16.4002 63.3184 22.1357C63.3184 27.3795 66.3248 30.3292 70.7725 30.3292C72.5977 30.3292 74.1177 29.7497 75.5603 28.4775C75.8233 28.2456 76.2765 28.4884 76.197 28.829L76.0583 29.4233C76.0089 29.6351 76.1705 29.8375 76.3891 29.8375H80.9001C81.6962 29.8375 82.3854 29.2874 82.5578 28.5143L88.3578 2.51221H83.4165C82.6217 2.51221 81.9332 3.06058 81.7595 3.83206L79.8329 12.3854C78.5562 10.5418 76.2499 9.55862 73.7789 9.55862ZM74.8909 15.1302C76.1891 15.1302 77.3413 15.5662 78.179 16.2518C78.647 16.635 78.7672 17.273 78.6335 17.8612L77.4854 22.914C76.5382 24.0202 75.2203 24.7576 73.7377 24.7576C71.555 24.7576 69.8665 23.2008 69.8665 20.7837C69.8665 17.7112 71.9669 15.1302 74.8909 15.1302Z" fill="black"/>
<path d="M43.2588 4.11016C43.2588 6.77305 40.9525 8.28885 39.1405 8.28885C37.2049 8.28885 35.8458 6.85498 35.8458 5.17532C35.8458 3.94922 36.326 2.97499 37.0251 2.28063C37.8444 1.46696 38.9642 1.0376 39.9642 1.0376C41.8586 1.0376 43.2588 2.43049 43.2588 4.11016Z" fill="black"/>
<defs>
<linearGradient id="paint0_linear_2627_68" x1="92.2095" y1="14.3026" x2="120.081" y2="17.9474" gradientUnits="userSpaceOnUse">
<stop offset="0.3" stop-color="#6566FF"/>
<stop offset="0.85" stop-color="#7622E2"/>
</linearGradient>
</defs>
</svg>
